<svg width="32" height="32" viewBox="0 0 32 32" fill="none" xmlns="http://www.w3.org/2000/svg">
  <rect width="32" height="32" rx="6" fill="#066F96"/>
  <path d="M8 6H24C25.1 6 26 6.9 26 8V24C26 25.1 25.1 26 24 26H8C6.9 26 6 25.1 6 24V8C6 6.9 6.9 6 8 6Z" fill="white"/>
  <path d="M10 9H22V11H10V9Z" fill="#066F96"/>
  <path d="M10 13H22V15H10V13Z" fill="#066F96"/>
  <path d="M10 17H22V19H10V17Z" fill="#066F96"/>
  <path d="M10 21H18V23H10V21Z" fill="#066F96"/>
  <circle cx="20" cy="21" r="1.5" fill="#066F96"/>
</svg>
